<svg width="208" height="87" viewBox="0 0 208 87" fill="none" xmlns="http://www.w3.org/2000/svg">
<path d="M52.1387 28.5488C52.1387 28.8052 52.1038 29.12 52.0338 29.493C51.9639 29.866 51.8357 30.4022 51.6492 31.1015L43.3265 59.3215C43.21 59.7178 43.0584 60.0442 42.8719 60.3006C42.6854 60.5337 42.394 60.7202 41.9977 60.8601C41.6247 61 41.0769 61.0933 40.3542 61.1399C39.6548 61.1865 38.734 61.2098 37.5916 61.2098C36.4493 61.2098 35.5168 61.1748 34.7941 61.1049C34.0714 61.0583 33.5003 60.965 33.0806 60.8252C32.6843 60.6853 32.3929 60.4988 32.2064 60.2657C32.0199 60.0092 31.88 59.6945 31.7868 59.3215L26.5414 40.3683L26.4715 40.0536L26.4016 40.3683L21.5758 59.3215C21.4826 59.7178 21.3427 60.0442 21.1562 60.3006C20.993 60.5337 20.7016 60.7202 20.282 60.8601C19.8624 61 19.2912 61.0933 18.5685 61.1399C17.8458 61.1865 16.9133 61.2098 15.771 61.2098C14.6054 61.2098 13.6612 61.1748 12.9385 61.1049C12.2391 61.0583 11.6796 60.965 11.26 60.8252C10.8637 60.6853 10.5723 60.4988 10.3858 60.2657C10.1993 60.0092 10.0594 59.6945 9.96615 59.3215L1.71348 31.1015C1.50367 30.4255 1.36379 29.9009 1.29385 29.5279C1.24723 29.1316 1.22391 28.8052 1.22391 28.5488C1.22391 28.3157 1.2822 28.1175 1.39876 27.9543C1.53863 27.7678 1.77176 27.628 2.09814 27.5347C2.44783 27.4181 2.90242 27.3365 3.46193 27.2899C4.04474 27.2433 4.76744 27.22 5.63 27.22C6.56251 27.22 7.32017 27.2433 7.90299 27.2899C8.4858 27.3365 8.9404 27.4181 9.26677 27.5347C9.59315 27.6513 9.81462 27.8145 9.93118 28.0243C10.0711 28.2108 10.176 28.4439 10.2459 28.7236L16.4354 51.6283L16.5053 52.0479L16.5753 51.6283L22.3801 28.7236C22.4501 28.4439 22.555 28.2108 22.6949 28.0243C22.858 27.8145 23.0912 27.6513 23.3942 27.5347C23.6973 27.4181 24.1169 27.3365 24.6531 27.2899C25.2126 27.2433 25.9237 27.22 26.7862 27.22C27.6488 27.22 28.3482 27.255 28.8844 27.3249C29.4206 27.3715 29.8402 27.4531 30.1432 27.5697C30.4696 27.6629 30.6911 27.8028 30.8077 27.9893C30.9475 28.1525 31.0524 28.3506 31.1224 28.5838L37.3469 51.6633L37.4518 52.0479L37.5217 51.6283L43.4664 28.7236C43.513 28.4439 43.6063 28.2108 43.7462 28.0243C43.886 27.8145 44.1192 27.6513 44.4455 27.5347C44.7719 27.4181 45.2149 27.3365 45.7744 27.2899C46.3339 27.2433 47.0449 27.22 47.9075 27.22C48.77 27.22 49.4694 27.2433 50.0056 27.2899C50.5651 27.3365 50.9964 27.4181 51.2995 27.5347C51.6258 27.628 51.8473 27.7678 51.9639 27.9543C52.0804 28.1175 52.1387 28.3157 52.1387 28.5488ZM86.0236 43.3057C86.0236 44.3781 85.7789 45.1707 85.2893 45.6836C84.823 46.1965 84.1703 46.4529 83.331 46.4529H64.3429C64.3429 47.7817 64.4944 48.994 64.7975 50.0897C65.1239 51.1621 65.6251 52.0829 66.3012 52.8522C67.0005 53.5982 67.8864 54.1694 68.9588 54.5657C70.0545 54.962 71.36 55.1602 72.8753 55.1602C74.4139 55.1602 75.7661 55.0553 76.9317 54.8455C78.0973 54.6123 79.0998 54.3676 79.939 54.1111C80.8016 53.8314 81.5126 53.5866 82.0722 53.3768C82.6317 53.1436 83.0863 53.0271 83.4359 53.0271C83.6458 53.0271 83.8206 53.0737 83.9605 53.167C84.1004 53.2369 84.2169 53.3768 84.3102 53.5866C84.4034 53.7964 84.4617 54.0995 84.485 54.4958C84.5316 54.8688 84.5549 55.3467 84.5549 55.9295C84.5549 56.4424 84.5433 56.8853 84.52 57.2583C84.4967 57.608 84.4617 57.9111 84.4151 58.1675C84.3684 58.424 84.2985 58.6454 84.2053 58.8319C84.112 58.9951 83.9838 59.1583 83.8206 59.3215C83.6807 59.4847 83.2728 59.7061 82.5967 59.9859C81.9206 60.2657 81.0581 60.5454 80.009 60.8252C78.9599 61.0816 77.7593 61.3031 76.4072 61.4896C75.055 61.6994 73.6097 61.8043 72.071 61.8043C69.2968 61.8043 66.8607 61.4546 64.7625 60.7552C62.6877 60.0558 60.9509 58.9951 59.5521 57.573C58.1534 56.151 57.1043 54.3559 56.4049 52.1878C55.7289 50.0197 55.3908 47.4787 55.3908 44.5646C55.3908 41.7904 55.7522 39.2959 56.4749 37.0812C57.1976 34.8432 58.2466 32.9549 59.6221 31.4163C60.9975 29.8543 62.6644 28.6654 64.6226 27.8494C66.6042 27.0335 68.8306 26.6255 71.3017 26.6255C73.9127 26.6255 76.1391 27.0102 77.9808 27.7795C79.8458 28.5488 81.3728 29.6212 82.5617 30.9966C83.7507 32.3488 84.6249 33.9573 85.1844 35.8223C85.7439 37.6874 86.0236 39.7156 86.0236 41.9069V43.3057ZM77.4912 40.7879C77.5612 38.3168 77.0599 36.3819 75.9876 34.9831C74.9385 33.561 73.3066 32.85 71.0919 32.85C69.9729 32.85 68.9938 33.0598 68.1545 33.4794C67.3386 33.8991 66.6508 34.4702 66.0913 35.1929C65.5551 35.8923 65.1355 36.7315 64.8325 37.7107C64.5527 38.6665 64.3895 39.6922 64.3429 40.7879H77.4912ZM116.901 54.8455C116.901 55.4516 116.878 55.9645 116.831 56.3841C116.808 56.7804 116.761 57.1184 116.691 57.3982C116.645 57.6779 116.575 57.9111 116.482 58.0976C116.412 58.2608 116.237 58.4822 115.957 58.762C115.677 59.0184 115.199 59.3448 114.523 59.7411C113.847 60.1141 113.078 60.4522 112.215 60.7552C111.353 61.0583 110.409 61.3031 109.383 61.4896C108.38 61.6761 107.343 61.7693 106.271 61.7693C103.869 61.7693 101.736 61.3963 99.8714 60.6503C98.0297 59.9043 96.4794 58.8086 95.2205 57.3632C93.9616 55.8945 93.0058 54.1111 92.353 52.013C91.7236 49.9148 91.4089 47.5136 91.4089 44.8094C91.4089 41.6855 91.7935 38.9929 92.5628 36.7315C93.3555 34.4469 94.4512 32.5586 95.8499 31.0666C97.2487 29.5746 98.9039 28.4672 100.816 27.7445C102.727 27.0218 104.825 26.6605 107.11 26.6605C108.042 26.6605 108.952 26.7421 109.838 26.9053C110.747 27.0685 111.586 27.2899 112.355 27.5697C113.148 27.8494 113.847 28.1641 114.453 28.5138C115.083 28.8635 115.526 29.1666 115.782 29.423C116.039 29.6795 116.214 29.9009 116.307 30.0874C116.423 30.2506 116.505 30.4721 116.552 30.7518C116.621 31.0316 116.668 31.3813 116.691 31.8009C116.738 32.1972 116.761 32.6868 116.761 33.2696C116.761 34.6217 116.645 35.5776 116.412 36.1371C116.179 36.6733 115.875 36.9414 115.502 36.9414C115.106 36.9414 114.687 36.7782 114.244 36.4518C113.801 36.1254 113.276 35.7641 112.67 35.3678C112.064 34.9714 111.341 34.6101 110.502 34.2837C109.663 33.9573 108.66 33.7941 107.495 33.7941C105.21 33.7941 103.461 34.68 102.249 36.4518C101.037 38.2002 100.431 40.7763 100.431 44.1799C100.431 45.8584 100.582 47.3388 100.885 48.621C101.189 49.9032 101.631 50.9756 102.214 51.8381C102.82 52.7007 103.566 53.3535 104.452 53.7964C105.361 54.216 106.411 54.4258 107.599 54.4258C108.812 54.4258 109.849 54.251 110.712 53.9013C111.598 53.5283 112.367 53.1203 113.02 52.6774C113.672 52.2344 114.22 51.8381 114.663 51.4884C115.106 51.1154 115.479 50.9289 115.782 50.9289C115.992 50.9289 116.167 50.9872 116.307 51.1038C116.447 51.2203 116.552 51.4418 116.621 51.7682C116.715 52.0713 116.785 52.4676 116.831 52.9571C116.878 53.4467 116.901 54.0761 116.901 54.8455ZM164.564 59.8111C164.564 60.0442 164.494 60.254 164.354 60.4405C164.214 60.6037 163.969 60.7436 163.62 60.8601C163.293 60.9767 162.85 61.0583 162.291 61.1049C161.731 61.1748 161.02 61.2098 160.158 61.2098C159.295 61.2098 158.584 61.1748 158.025 61.1049C157.465 61.0583 157.011 60.9767 156.661 60.8601C156.335 60.7436 156.101 60.6037 155.962 60.4405C155.822 60.254 155.752 60.0442 155.752 59.8111V28.6887C155.752 28.4556 155.822 28.2574 155.962 28.0942C156.101 27.9077 156.335 27.7562 156.661 27.6396C157.011 27.4997 157.465 27.3948 158.025 27.3249C158.584 27.255 159.295 27.22 160.158 27.22C161.02 27.22 161.731 27.255 162.291 27.3249C162.85 27.3948 163.293 27.4997 163.62 27.6396C163.969 27.7562 164.214 27.9077 164.354 28.0942C164.494 28.2574 164.564 28.4556 164.564 28.6887V59.8111ZM165.228 18.0581C165.228 19.8299 164.867 21.0538 164.144 21.7299C163.422 22.4059 162.081 22.744 160.123 22.744C158.141 22.744 156.801 22.4176 156.101 21.7648C155.425 21.1121 155.087 19.9348 155.087 18.233C155.087 16.4612 155.437 15.2373 156.136 14.5612C156.859 13.8618 158.211 13.5122 160.193 13.5122C162.151 13.5122 163.48 13.8502 164.179 14.5263C164.879 15.179 165.228 16.3563 165.228 18.0581ZM203.17 59.8111C203.17 60.0442 203.1 60.254 202.96 60.4405C202.82 60.6037 202.587 60.7436 202.26 60.8601C201.934 60.9767 201.479 61.0583 200.897 61.1049C200.337 61.1748 199.638 61.2098 198.799 61.2098C197.936 61.2098 197.213 61.1748 196.63 61.1049C196.071 61.0583 195.628 60.9767 195.302 60.8601C194.975 60.7436 194.742 60.6037 194.602 60.4405C194.462 60.254 194.392 60.0442 194.392 59.8111V42.0119C194.392 40.4965 194.276 39.3076 194.043 38.445C193.833 37.5825 193.518 36.8481 193.099 36.242C192.679 35.6125 192.131 35.1346 191.455 34.8082C190.802 34.4586 190.033 34.2837 189.147 34.2837C188.028 34.2837 186.897 34.6917 185.755 35.5076C184.613 36.3236 183.424 37.5125 182.188 39.0745V59.8111C182.188 60.0442 182.118 60.254 181.978 60.4405C181.839 60.6037 181.594 60.7436 181.244 60.8601C180.918 60.9767 180.475 61.0583 179.915 61.1049C179.356 61.1748 178.645 61.2098 177.782 61.2098C176.92 61.2098 176.209 61.1748 175.649 61.1049C175.09 61.0583 174.635 60.9767 174.285 60.8601C173.959 60.7436 173.726 60.6037 173.586 60.4405C173.446 60.254 173.376 60.0442 173.376 59.8111V28.6187C173.376 28.3856 173.434 28.1875 173.551 28.0243C173.668 27.8378 173.877 27.6862 174.18 27.5697C174.483 27.4531 174.868 27.3715 175.334 27.3249C175.824 27.255 176.43 27.22 177.153 27.22C177.899 27.22 178.517 27.255 179.006 27.3249C179.496 27.3715 179.869 27.4531 180.125 27.5697C180.405 27.6862 180.603 27.8378 180.72 28.0243C180.836 28.1875 180.894 28.3856 180.894 28.6187V32.2205C182.62 30.3555 184.368 28.9568 186.14 28.0243C187.935 27.0918 189.8 26.6255 191.735 26.6255C193.856 26.6255 195.64 26.9752 197.085 27.6746C198.554 28.374 199.731 29.3298 200.617 30.542C201.526 31.731 202.179 33.1297 202.575 34.7383C202.972 36.3469 203.17 38.2818 203.17 40.5432V59.8111Z" fill="white"/>
<path d="M133.595 28.0211H137.543V29.546C140.899 32.2602 143.238 38.3204 143.238 45.3626C143.238 52.4048 140.899 58.46 137.543 61.1792V62.7041H133.595C128.265 62.7041 123.937 54.9414 123.937 45.3626C123.937 35.7838 128.265 28.0211 133.595 28.0211Z" fill="#E0E0E0"/>
<path d="M128.556 30.5636H135.436V29.7888H129.346C129.07 30.0331 128.806 30.2918 128.556 30.5636Z" fill="white"/>
<path d="M126.879 32.9214H135.436V32.1219H127.357C127.194 32.3736 127.036 32.6303 126.879 32.9214Z" fill="white"/>
<path d="M125.754 35.2349H135.436V34.4551H126.084C125.971 34.7118 125.842 34.9733 125.754 35.2349Z" fill="white"/>
<path d="M124.969 37.576H135.436V36.7963H125.196C125.117 37.0529 125.038 37.3095 124.969 37.576Z" fill="white"/>
<path d="M124.426 39.9092H135.435V39.1295H124.579C124.529 39.3861 124.475 39.6476 124.426 39.9092Z" fill="white"/>
<path d="M124.095 42.2483H135.445V41.4686H124.179C124.149 41.7252 124.12 41.9867 124.095 42.2483Z" fill="white"/>
<path d="M123.947 44.5837H135.436V43.804H123.977C123.962 44.0656 123.952 44.3222 123.947 44.5837Z" fill="white"/>
<path d="M123.947 46.1431C123.947 46.4047 123.947 46.6366 123.977 46.9229H135.436V46.1431H123.947Z" fill="white"/>
<path d="M124.095 48.4764C124.095 48.7379 124.149 48.9995 124.179 49.2561H135.436V48.4764H124.095Z" fill="white"/>
<path d="M124.426 50.8155C124.475 51.077 124.529 51.3386 124.579 51.5903H135.435V50.8155H124.426Z" fill="white"/>
<path d="M124.969 53.1547C125.038 53.4212 125.117 53.6778 125.196 53.9344H135.436V53.1547H124.969Z" fill="white"/>
<path d="M125.754 55.4897C125.862 55.7513 125.971 56.0129 126.084 56.2645H135.436V55.4897H125.754Z" fill="white"/>
<path d="M126.879 57.823C127.036 58.0944 127.194 58.351 127.372 58.6027H135.451V57.823H126.879Z" fill="white"/>
<path d="M128.556 60.1582C128.805 60.4329 129.068 60.6932 129.346 60.9379H135.436V60.1582H128.556Z" fill="white"/>
<path style="mix-blend-mode:multiply" d="M133.595 28.0211H137.543V29.546C140.899 32.2602 143.238 38.3204 143.238 45.3626C143.238 52.4048 140.899 58.46 137.543 61.1792V62.7041H133.595C128.265 62.7041 123.937 54.9414 123.937 45.3626C123.937 35.7838 128.265 28.0211 133.595 28.0211Z" fill="url(#paint0_linear_703_7136)"/>
<path d="M137.558 62.7042C142.891 62.7042 147.215 54.9401 147.215 45.3626C147.215 35.7852 142.891 28.0211 137.558 28.0211C132.224 28.0211 127.9 35.7852 127.9 45.3626C127.9 54.9401 132.224 62.7042 137.558 62.7042Z" fill="white"/>
<path d="M137.558 61.18C142.232 61.18 146.021 54.0986 146.021 45.3634C146.021 36.6281 142.232 29.5468 137.558 29.5468C132.883 29.5468 129.094 36.6281 129.094 45.3634C129.094 54.0986 132.883 61.18 137.558 61.18Z" fill="white"/>
<path style="mix-blend-mode:multiply" d="M137.558 61.18C142.232 61.18 146.021 54.0986 146.021 45.3634C146.021 36.6281 142.232 29.5468 137.558 29.5468C132.883 29.5468 129.094 36.6281 129.094 45.3634C129.094 54.0986 132.883 61.18 137.558 61.18Z" fill="url(#paint1_linear_703_7136)"/>
<path style="mix-blend-mode:multiply" d="M145.162 45.3637C145.162 36.8953 141.604 29.9863 137.128 29.5718C137.271 29.5644 137.414 29.5644 137.557 29.5718C142.231 29.5718 146.021 36.6535 146.021 45.3884C146.021 54.1233 142.231 61.205 137.557 61.205C137.414 61.205 137.271 61.205 137.128 61.205C141.604 60.7411 145.162 53.8321 145.162 45.3637Z" fill="url(#paint2_radial_703_7136)"/>
<path d="M132.598 26H136.81V27.6268C140.39 30.5223 142.885 36.9873 142.885 44.5C142.885 52.0127 140.39 58.4724 136.81 61.3732V63H132.598C126.912 63 122.295 54.7187 122.295 44.5C122.295 34.2813 126.912 26 132.598 26Z" fill="#E0E0E0"/>
<path d="M127.223 28.7136H134.562V27.887H128.066C127.771 28.1477 127.489 28.4236 127.223 28.7136Z" fill="#FAA41A"/>
<path d="M125.434 31.2272H134.563V30.3743H125.944C125.771 30.6428 125.602 30.9166 125.434 31.2272Z" fill="#FAA41A"/>
<path d="M124.233 33.695H134.562V32.8632H124.586C124.464 33.137 124.328 33.416 124.233 33.695Z" fill="#FAA41A"/>
<path d="M123.395 36.1931H134.562V35.3613H123.638C123.553 35.6351 123.469 35.9089 123.395 36.1931Z" fill="#FAA41A"/>
<path d="M122.816 38.6825H134.561V37.8506H122.979C122.926 38.1244 122.869 38.4034 122.816 38.6825Z" fill="#FAA41A"/>
<path d="M122.463 41.1776H134.572V40.3458H122.553C122.521 40.6196 122.49 40.8986 122.463 41.1776Z" fill="#FAA41A"/>
<path d="M122.306 43.6695H134.562V42.8376H122.337C122.321 43.1167 122.311 43.3904 122.306 43.6695Z" fill="#FAA41A"/>
<path d="M122.306 45.3329C122.306 45.6119 122.306 45.8594 122.337 46.1647H134.562V45.3329H122.306Z" fill="#FAA41A"/>
<path d="M122.463 47.8222C122.463 48.1012 122.521 48.3803 122.553 48.654H134.561V47.8222H122.463Z" fill="#FAA41A"/>
<path d="M122.816 50.3183C122.869 50.5973 122.926 50.8764 122.979 51.1448H134.561V50.3183H122.816Z" fill="#FAA41A"/>
<path d="M123.395 52.8135C123.469 53.0978 123.553 53.3715 123.638 53.6453H134.562V52.8135H123.395Z" fill="#FAA41A"/>
<path d="M124.233 55.3037C124.349 55.5827 124.464 55.8618 124.586 56.1303H134.562V55.3037H124.233Z" fill="#FAA41A"/>
<path d="M125.434 57.7933C125.602 58.0828 125.771 58.3566 125.96 58.6251H134.578V57.7933H125.434Z" fill="#FAA41A"/>
<path d="M127.223 60.2849C127.488 60.5778 127.769 60.8556 128.066 61.1167H134.562V60.2849H127.223Z" fill="#FAA41A"/>
<path style="mix-blend-mode:multiply" d="M132.598 26H136.81V27.6268C140.39 30.5223 142.885 36.9873 142.885 44.5C142.885 52.0127 140.39 58.4724 136.81 61.3732V63H132.598C126.912 63 122.295 54.7187 122.295 44.5C122.295 34.2813 126.912 26 132.598 26Z" fill="url(#paint3_linear_703_7136)"/>
<path d="M136.825 63C142.515 63 147.128 54.7173 147.128 44.5C147.128 34.2827 142.515 26 136.825 26C131.135 26 126.522 34.2827 126.522 44.5C126.522 54.7173 131.135 63 136.825 63Z" fill="#FAA41A"/>
<path d="M136.826 61.3747C141.813 61.3747 145.855 53.8203 145.855 44.5015C145.855 35.1826 141.813 27.6282 136.826 27.6282C131.84 27.6282 127.797 35.1826 127.797 44.5015C127.797 53.8203 131.84 61.3747 136.826 61.3747Z" fill="#FAA41A"/>
<path style="mix-blend-mode:multiply" d="M136.826 61.3747C141.813 61.3747 145.855 53.8203 145.855 44.5015C145.855 35.1826 141.813 27.6282 136.826 27.6282C131.84 27.6282 127.797 35.1826 127.797 44.5015C127.797 53.8203 131.84 61.3747 136.826 61.3747Z" fill="url(#paint4_linear_703_7136)"/>
<path style="mix-blend-mode:multiply" d="M144.939 44.5018C144.939 35.4676 141.143 28.0971 136.368 27.6549C136.521 27.647 136.673 27.647 136.826 27.6549C141.812 27.6549 145.855 35.2097 145.855 44.5281C145.855 53.8466 141.812 61.4013 136.826 61.4013C136.673 61.4013 136.521 61.4013 136.368 61.4013C141.143 60.9065 144.939 53.5359 144.939 44.5018Z" fill="url(#paint5_radial_703_7136)"/>
<defs>
<linearGradient id="paint0_linear_703_7136" x1="133.6" y1="33.8345" x2="133.6" y2="72.4408" gradientUnits="userSpaceOnUse">
<stop offset="0.02" stop-color="#DBD7D7" stop-opacity="0"/>
<stop offset="1" stop-color="#E0E0E0"/>
</linearGradient>
<linearGradient id="paint1_linear_703_7136" x1="137.558" y1="36.742" x2="137.558" y2="87.9177" gradientUnits="userSpaceOnUse">
<stop offset="0.02" stop-color="white" stop-opacity="0"/>
<stop offset="1" stop-color="#E8E8E8"/>
</linearGradient>
<radialGradient id="paint2_radial_703_7136" cx="0" cy="0" r="1" gradientUnits="userSpaceOnUse" gradientTransform="translate(141.575 45.4691) rotate(180) scale(11.617 15.6829)">
<stop offset="0.02" stop-color="white" stop-opacity="0"/>
<stop offset="1" stop-color="#DBDBDB"/>
</radialGradient>
<linearGradient id="paint3_linear_703_7136" x1="132.603" y1="32.2018" x2="132.603" y2="73.3872" gradientUnits="userSpaceOnUse">
<stop offset="0.02" stop-color="#DBD7D7" stop-opacity="0"/>
<stop offset="1" stop-color="#E0E0E0"/>
</linearGradient>
<linearGradient id="paint4_linear_703_7136" x1="136.826" y1="35.3041" x2="136.826" y2="89.8986" gradientUnits="userSpaceOnUse">
<stop offset="0.02" stop-color="white" stop-opacity="0"/>
<stop offset="1" stop-color="#E8E8E8"/>
</linearGradient>
<radialGradient id="paint5_radial_703_7136" cx="0" cy="0" r="1" gradientUnits="userSpaceOnUse" gradientTransform="translate(141.111 44.6142) rotate(180) scale(12.393 16.7305)">
<stop offset="0.02" stop-color="white" stop-opacity="0"/>
<stop offset="1" stop-color="#DBDBDB"/>
</radialGradient>
</defs>
</svg>
